<?xml version="1.0" encoding="utf-8"?>
<!-- Generator: Adobe Illustrator 19.0.0, SVG Export Plug-In . SVG Version: 6.00 Build 0)  -->
<svg version="1.1" xmlns="http://www.w3.org/2000/svg" xmlns:xlink="http://www.w3.org/1999/xlink" x="0px" y="0px"
	 viewBox="0 0 752.1 418.5" style="enable-background:new 0 0 752.1 418.5;" xml:space="preserve">
<style type="text/css">
	.st0{opacity:0.7;fill:#E55A47;}
	.st1{fill:#2A3549;}
	.st2{fill:#3C4D68;}
	.st3{fill:#FFFFFF;}
	.st4{fill:#192E3A;}
	.st5{fill:#ED3B2E;}
	.st6{fill:#F84834;}
	.st7{fill:#4F4003;}
	.st8{fill:#F9C9A5;}
	.st9{fill:#D2A580;}
	.st10{fill:#7F4516;}
	.st11{fill:#131416;}
	.st12{fill:#506A91;}
	.st13{fill:#40567A;}
	.st14{fill:#CFD7E2;}
</style>
<g id="Objects">
	<ellipse class="st0" cx="376.8" cy="365.6" rx="376.8" ry="48.6"/>
	<path class="st1" d="M384.6,196.9c0,0,2.2,152.2,2.9,157.2c0.6,5.1-10.2,8.6-12.1,0c-1.9-8.6-3.2-157.2-3.2-157.2H384.6z"/>
	<g>
		<path class="st2" d="M264.1,257.3c0,0-2.5,88.7,0,91.4h10.8c0,0,0-87,0-91.4C274.9,252.9,264.2,253.6,264.1,257.3z"/>
		<path class="st2" d="M329.2,255.8c0,0,1.1,92.3,3.6,92.9c2.4,0.6,10.4,0,10.4,0s1.6-82.4,0-90.2
			C341.6,250.7,329.2,255.8,329.2,255.8z"/>
		<path class="st2" d="M352,242.9l-4,16.7l-87.4-1.2l-0.3-21.6C260.3,236.9,329.7,236.1,352,242.9z"/>
	</g>
	<path class="st3" d="M284.3,139.7c0,0-7.4,11.4-7.7,15C276.7,154.7,283.4,144.5,284.3,139.7z"/>
	<g>
		<g>
			<path class="st4" d="M343.4,331.9c0,0-7.6,12.3-8.9,15.9c-1.2,3.6,2.5,13.2,4.4,13.7c1.9,0.5,15.5,3,16.5,5.5c1,2.5,0,6.8,0,6.8
				s-16.5,1.8-25.4,0c-8.9-1.8-15.8-28.5-14.4-38.6c0,0,12.2-9.1,14.4-11.1C332.3,322.2,343.4,331.9,343.4,331.9z"/>
			<path class="st5" d="M345.1,218.2c0,0,74.4-8.9,80-4.9c5.5,4,7.6,12.6,2.5,19.7c-5,7.1-76.6,94.5-80.7,98.9
				c-4,4.4-18.8-2.6-21-8.7c0,0,66.4-80.2,68.9-86.7c0,0-61.9-0.2-68.9-9.1c-7-8.9-17.3-11.1-11.8-14.1
				C319.7,210.3,345.1,218.2,345.1,218.2z"/>
		</g>
		<g>
			<path class="st4" d="M396.9,361c0,0,3,12.1,5.5,14.1s24.2-3,26.2,0c2,3,1.9,13.6,1.9,13.6s-39.7,4.5-45.2,0
				c0,0-10.3,2.5-13.7-0.5c0,0,2.1-26.7,5.1-30.2S396.9,361,396.9,361z"/>
			<path class="st6" d="M314.2,213.3c0,0,8.7,11.1,16,11.6c7.2,0.5,77.8-1,83.9,6.1s-15.1,117.9-12.6,132.8c0,0-26.7,0.7-30.3,0
				c0,0,22.2-105.1,19.7-110.1c-2.5-5-101.6-10.1-107.1-15.7c-5.5-5.5-6.1-15.6-4.5-21.2C280.7,211.2,314.2,213.3,314.2,213.3z"/>
		</g>
	</g>
	<path class="st7" d="M298.2,69c0,0-9.2-10.8-10.8-16.8c-1.6-6-1.6-26.7-1.6-26.7c-0.7-2-1.8-5.9-0.1-7.3c0,0,0.1-0.1,0.1-0.1
		l7.3-3.7c0,0,14.9-14,39.7-8.6c0,0,7.9-11,12.4-1.2c0,0,9.8-8.6,14.6,3.1c4.8,11.7-3.1,19-3.1,19s5.9,23.3-2.2,30
		C346.5,63.6,310,71.5,298.2,69z"/>
	<path class="st8" d="M306.7,44.8c-0.4,0.5-0.5,1.2-0.4,1.8c1.1,6.6,7.9,45.5,9,47.5c1.3,2.2,15.8,12.3,26.9,8.2
		c10.4-3.8,13.7-6.7,14.3-19c0.7-13.1-3.8-47.6-5.2-53.2c-0.1-0.4-0.5-0.6-0.8-0.4c-1.4,0.8-5,2.3-7,2.3c-2.6-0.1-21.5-0.1-23.8,0
		C316,32.1,308.8,41.9,306.7,44.8z"/>
	<path class="st8" d="M315.1,70.6c0,0-7-9.5-13-8.3s-5.4,11.7-3.5,15.2C300.5,81.1,314.8,89.3,315.1,70.6z"/>
	<path class="st9" d="M341.1,62.2c0,0-0.2,6.6,1,6.5c1.1-0.2,6.5-0.3,7.5,0.8s0.8,6.2,0,6.7c-0.8,0.5-5.7,1.4-8.4,1
		c0,0,7.5-1.4,7.6-2.2c0.2-0.8,0.2-5.2-0.6-5.2c-0.8,0.1-5.9,0.9-7,0C340,68.8,340.8,63.4,341.1,62.2z"/>
	<path class="st10" d="M328,88.3c0,0,13.6,2.6,22.9-2.5C350.9,85.8,338.5,94.8,328,88.3z"/>
	<ellipse transform="matrix(0.9943 -0.1064 0.1064 0.9943 -4.837 35.1836)" class="st11" cx="327.2" cy="62.9" rx="1.9" ry="3.1"/>
	<ellipse transform="matrix(0.9943 -0.1064 0.1064 0.9943 -4.3922 37.406)" class="st11" cx="348.3" cy="59.9" rx="1.9" ry="3.1"/>
	<path class="st7" d="M330.1,43c0.6-0.1-8.3-2.4-11.6,5.2C318.5,48.2,327.4,43.5,330.1,43z"/>
	<path class="st7" d="M341.4,40.8c-0.5,0,5.9-3.5,8.7,3.2C350.1,43.9,346.9,40.8,341.4,40.8z"/>
	<g>
		<path class="st8" d="M345.7,142.1c0,0,9.3,27.7,13.6,36.1c4.3,8.4-10.6,7.8-10.6,7.8s-13.4-29.8-14.2-37.5
			C333.6,140.9,342.1,131.7,345.7,142.1z"/>
		<g>
			<path class="st12" d="M294.3,109.7c2.6,5,14.3,15.7,21.7,14.8c7.4-1,17.4-5.7,8.2-18.6c-3.4-0.9-7-1.7-10.5-2.4
				c-6.3-1.2-13.2-1.2-19.5-0.6C293.7,103.4,292.1,105.4,294.3,109.7z"/>
			<path class="st13" d="M339.8,111.5c-1.1-1.3-7.7-3.6-15.6-5.6c9.2,12.9-0.8,17.6-8.2,18.6c-7.4,1-19-9.8-21.7-14.8
				c-2.3-4.3-0.6-6.3-0.1-6.8c-11.2,1-20.3,3.6-20.3,3.6c-3.2,2.3-18.6,37.3-17.2,38.9c2.7,3.3,20,9.2,20,9.2s-6.2,19.9-4.4,31.3
				c0.7,4.7,4.4,40.6,4.4,40.6c19-16.2,59.8-9.2,59.8-9.2s-8.2-17.9-9.2-24.5c-1.1-6.7,9.4-46.3,9.4-46.3s12.1,1.3,12.1-2.2
				C348.7,140.7,341.4,113.4,339.8,111.5z"/>
		</g>
		<path class="st8" d="M329,97.6c0,0-5.9,6.7-7.9,10.8c0,0,7.2,8.6-3.2,10.8c-10.5,2.2-20.9-11.8-19.4-15.6c0,0,8.9-0.6,11.4-1.9
			c2.5-1.3,3.7-14.6,3.7-14.6S324.3,82,329,97.6z"/>
		<g>
			<path class="st8" d="M274.3,153.8c0,0-6.2,18.9-5.3,21.5c1,2.5,37.4,5.4,43.2,5.1c5.7-0.3,4.8,9.2-1.3,10.5
				c-6,1.3-55.5,2.5-59.7-1c-4.1-3.5,5.5-40.1,6.8-43.3C264.2,149.6,266,150.2,274.3,153.8z"/>
			<path class="st8" d="M324.3,176.3c0,0,5.1-6.7,7.2-8.5c2-1.7,5.2-1.9,5.2-1.9s3.8,2.2,4.4,4.1c0.6,1.9,3.3,7.7,0,8.9
				c-3.3,1.2-7.6-5.3-7.6-5.3s-3.1,1.7-4.1,3.3C328.4,178.7,324.3,176.3,324.3,176.3z"/>
			<path class="st8" d="M310.7,183.3c0,0,15.4-6.6,19.6-5.1c4.2,1.5,9,2.2,11.7,2.5c2.6,0.2,4.4,3,4.9,2.7
				C347.4,183,315.9,188.4,310.7,183.3z"/>
			<path class="st8" d="M312.2,180.4c0.9,0,8.1-1.7,10.3-3c2.2-1.3,7.4-6.1,8.9-5.6c1.4,0.5,2.7,2.9,3,6.8c0.3,4-1.6,6.3-4.3,5.4
				c-2.7-1-2.2-4.1-2.2-4.1s-9.4,4.9-12.5,4.3C312.2,183.7,312.2,180.4,312.2,180.4z"/>
		</g>
	</g>
	<g>
		<path class="st14" d="M301.2,192.2c0,0-0.3-3.7,0-4.8c0.3-1.1,3.6-3.8,3.6-3.8s43.8-1.7,50.3-2.1c0,0,17.9-53,20.8-55.9
			c0,0,60.9,2.4,72.4,4.8l-16.7,53.9v7.9c0,0-74.4,1.3-79.8,0H301.2z"/>
		<path class="st3" d="M376.6,126.8c0.2-0.4,0.6-0.6,1.1-0.6c1.5,0.1,4.8,0.6,5,2.1c0.2,1.9-18.1,52.9-19.3,53.7
			c-0.8,0.5-4,0.2-5.9,0c-0.7-0.1-1.1-0.8-0.9-1.5C359.3,172.8,373.2,132.8,376.6,126.8z"/>
		<g>
			<path class="st3" d="M432.1,116.3c-0.4-1.9-0.7-3.9-1.8-5.6c-0.6-1-2.3-0.4-2.1,0.8c0.3,2,0.9,4.1,1.9,5.9
				C430.7,118.7,432.4,117.5,432.1,116.3z"/>
			<path class="st3" d="M445.2,110.9c-0.5,1.8-0.8,3.8-1.1,5.7c-0.2,1.5,2,1.9,2.3,0.4c0.4-1.9,0.8-3.8,0.9-5.7
				C447.5,109.9,445.6,109.5,445.2,110.9z"/>
			<path class="st3" d="M462.9,119.6c-0.9,0.4-1.7,1.1-2.5,1.7c-0.8,0.6-1.7,1.1-2.5,1.7c-1.1,0.8-0.2,2.6,1.1,2.1
				c1-0.3,1.9-0.9,2.7-1.4c0.9-0.7,2.1-1.5,2.6-2.5C464.8,120.4,463.9,119.2,462.9,119.6z"/>
			<path class="st3" d="M467.1,137.9c-1.2-1.1-3.5-2-5.2-1.7c-1.4,0.2-1.5,2.1-0.1,2.5c0.7,0.2,1.4,0.3,2.1,0.5
				c0.8,0.3,1.5,0.6,2.3,0.7C467.3,140.1,467.9,138.6,467.1,137.9z"/>
		</g>
	</g>
	<g>
		<path class="st1" d="M478.2,201.1c0,0,2.2,172.1,2.9,177.8s-10.2,9.7-12.1,0c-1.9-9.7-3.2-177.8-3.2-177.8H478.2z"/>
		<polygon class="st1" points="227.1,194.7 293.2,190.9 293.2,211.3 227.1,211.3 		"/>
		<polygon class="st1" points="487.4,190.9 293.2,190.9 293.2,211.3 487.4,206.7 		"/>
		<path class="st1" d="M240.2,206.6c0,0-10.9,161.9-10.9,167.6c0,0-8.8,8.4-10.7,0s8.9-167.6,8.9-167.6H240.2z"/>
		<path class="st1" d="M293.2,211.3c0,0-11.1,170.6-10,174.4c1.1,3.8,9.8,5.9,11.5,2.1s11.5-177.5,11.5-177.5L293.2,211.3z"/>
	</g>
</g>
<g id="Background">
	<path class="st7" d="M338.2,83.7L338.2,83.7c7.1-0.8,9.4-4.1,14-1.9c7,3.4,3.5-18.9,2.7-23.4c-1.1-6.6,2.4-28.6,3.2,2.3
		c0.1,4,2,7.9,4.3,18.9c0.3,11.1-12.1,23.3-21.3,24.3c-0.2,0-0.4,0-0.6,0.1l-1-8.9c1.8-0.1,3.2,1.6,5.1,0.9
		c6.2-2.1,8.6-7.8,8.3-10.5c-0.4-3.6-7.2-0.8-14.5,0.1l-0.1,0L338.2,83.7z M323.6,85.5c3.5-3.5,10.6-1.4,14.5-1.8l0.2,2
		c-6.9,0.8-14.2-0.4-14.2,2.8c0,2.7,3.2,8.1,10.1,8.7c2.1,0.2,3.1-2,5.1-2.1c0,0,0,0,0,0l1,8.9c-0.1,0-0.1,0-0.2,0
		c-0.2,0-0.5,0.1-0.8,0.1c-9.1,1.1-26.9-7.5-27.2-18.6c-0.3-11.1-2.2-14.8-4.1-18.4c-6.2-11.8,1.2-8.5,3-2.7
		c0.1,0.3,0.1,0.6,0.2,0.9C312,73.6,316.6,89.9,323.6,85.5z"/>
</g>
</svg>
