<?xml version="1.0" encoding="utf-8"?>
<!-- Generator: Adobe Illustrator 18.1.1, SVG Export Plug-In . SVG Version: 6.00 Build 0)  -->
<svg version="1.1" id="Layer_1" xmlns="http://www.w3.org/2000/svg" xmlns:xlink="http://www.w3.org/1999/xlink" x="0px" y="0px"
	 viewBox="0 0 16 16" style="enable-background:new 0 0 16 16;" xml:space="preserve">
<style type="text/css">
	.st0{fill-rule:evenodd;clip-rule:evenodd;fill:#1ABC9C;}
	.st1{opacity:0.27;fill-rule:evenodd;clip-rule:evenodd;fill:#1E1E1E;}
	.st2{fill-rule:evenodd;clip-rule:evenodd;fill:#E6B683;}
	.st3{fill-rule:evenodd;clip-rule:evenodd;fill:#1E1E1E;}
	.st4{fill-rule:evenodd;clip-rule:evenodd;fill:#FAD3A8;}
	.st5{fill-rule:evenodd;clip-rule:evenodd;fill:#E28D66;}
	.st6{fill-rule:evenodd;clip-rule:evenodd;fill:#EDA17D;}
	.st7{fill-rule:evenodd;clip-rule:evenodd;fill:#333333;}
	.st8{fill-rule:evenodd;clip-rule:evenodd;fill:#FFFFFF;}
	.st9{fill-rule:evenodd;clip-rule:evenodd;fill:#E85F3B;}
	.st10{fill:#471E00;}
	.st11{fill:#C79C6D;}
	.st12{fill:#1E1E1E;}
</style>
<g>
	<path class="st0" d="M8.068,15.937c4.371,0,7.937-3.565,7.937-7.937c0-4.371-3.565-7.937-7.937-7.937
		C3.696,0.063,0.131,3.629,0.131,8C0.131,12.371,3.696,15.937,8.068,15.937z"/>
	<path class="st1" d="M10.117,2.597c0.964,0.76,2.04,1.713,3.132,2.888c1.119,1.204,2.007,2.376,2.704,3.414
		c-0.09,0.446-0.181,0.893-0.271,1.339c-0.097,0.305-0.221,0.639-0.381,0.992c-0.19,0.421-0.393,0.788-0.589,1.101
		c-0.228,0.359-0.542,0.787-0.968,1.224c-0.413,0.423-0.82,0.741-1.164,0.974c-0.998-0.474-1.997-0.948-2.995-1.423L9.481,9.063
		L10.117,2.597z"/>
	<rect x="6.559" y="9.614" class="st2" width="3.017" height="5.435"/>
	<ellipse class="st3" cx="8.068" cy="6.821" rx="4.617" ry="4.713"/>
	<path class="st4" d="M8.222,3.95c2.037,0,3.637,1.105,3.382,3.752c-0.073,0.754,0.66,0.356,0.66,0.628
		c0,2.248-1.879,4.071-4.197,4.071c-2.318,0-4.197-1.822-4.197-4.071c0.495,0.72,0.57-0.193,0.548-0.614
		C4.236,4.269,6.087,3.95,8.222,3.95z"/>
	<path class="st5" d="M9.957,9.962c-1.02,1.445-2.759,1.445-3.779,0H9.957z"/>
	<path class="st6" d="M9.199,10.703c-0.712,0.457-1.551,0.457-2.263,0C7.616,9.913,8.52,9.913,9.199,10.703z"/>
	<g>
		<g>
			<ellipse class="st7" cx="6.646" cy="7.281" rx="0.361" ry="0.608"/>
			<circle class="st8" cx="6.699" cy="6.977" r="0.213"/>
		</g>
		<g>
			<ellipse class="st7" cx="9.489" cy="7.281" rx="0.361" ry="0.608"/>
			<circle class="st8" cx="9.542" cy="6.977" r="0.213"/>
		</g>
	</g>
	<path class="st3" d="M9.481,3.343c1.624,0.651,2.941,1.614,2.941,2.151s-1.317,0.443-2.941-0.208
		C7.857,4.635,6.54,3.672,6.54,3.135C6.54,2.599,7.857,2.692,9.481,3.343z"/>
	<g>
		
			<ellipse transform="matrix(0.3135 -0.9496 0.9496 0.3135 0.9181 17.2744)" class="st4" cx="12.406" cy="8.002" rx="1.114" ry="0.574"/>
		
			<ellipse transform="matrix(-0.3135 -0.9496 0.9496 -0.3135 -2.5817 14.1381)" class="st4" cx="3.82" cy="8.002" rx="1.114" ry="0.574"/>
	</g>
	<path class="st3" d="M5.177,3.7C4.274,4.272,4.228,5.257,4.228,5.541c0,0.284,0.733,0.051,1.637-0.52
		C6.769,4.449,7.501,3.755,7.501,3.47C7.501,3.186,6.081,3.128,5.177,3.7z"/>
	<path class="st8" d="M8.898,9.962c-0.046,0.389-1.646,0.349-1.661,0H8.898z"/>
	<path class="st9" d="M12.58,14.529c-0.781-0.636-2.231-1.135-2.995-1.423c-0.142,0.536-0.767,0.939-1.517,0.939
		c-0.75,0-1.376-0.404-1.517-0.939c-0.765,0.288-2.215,0.787-2.995,1.423c1.281,0.887,2.836,1.408,4.513,1.408
		C9.744,15.937,11.299,15.416,12.58,14.529z"/>
	<path class="st10" d="M10.327,6.726c0.089,0.184-0.159,0.214-0.248,0.03C9.926,6.44,9.466,6.365,9.14,6.482
		C8.949,6.551,8.844,6.26,9.036,6.19C9.509,6.021,10.104,6.266,10.327,6.726z"/>
	<path class="st11" d="M8.551,9.099c0.121-0.084,0.302-0.003,0.181,0.081c-0.367,0.253-0.961,0.253-1.328,0
		C7.282,9.096,7.446,9.03,7.584,9.099C7.86,9.235,8.296,9.229,8.551,9.099z"/>
	<path class="st3" d="M11.244,6.087c-1.111,0.38-4.475-0.564-4.798-3.634C7.237,4.728,9.832,5.683,11.244,6.087z"/>
	<path class="st10" d="M5.842,6.085C5.721,6.249,5.959,6.325,6.08,6.161c0.209-0.283,0.674-0.272,0.973-0.096
		C7.228,6.168,7.386,5.9,7.209,5.797C6.776,5.543,6.145,5.674,5.842,6.085z"/>
	<path class="st12" d="M8.077,9.468l0.012,0c1.07,0,1.479-0.461,2.139-0.044c1.414,0.896,1.457-2.817,1.429-3.292
		c-0.044-1.02,0.993-0.18,0.599,0.294c-0.394,0.473-0.441,1.169-0.292,2.859c0.148,1.691-2.399,3.291-3.799,3.291
		c-0.03,0-0.06-0.001-0.088-0.002v-1.363c0.273,0.019,0.462,0.292,0.754,0.229c0.982-0.213,1.445-1.028,1.447-1.438
		c0.002-0.557-1.077-0.244-2.192-0.234l-0.009,0V9.468z M5.843,9.485c0.594-0.464,1.635-0.024,2.234-0.018v0.302
		C7.02,9.777,5.93,9.461,5.879,9.941c-0.044,0.415,0.345,1.275,1.381,1.5c0.304,0.066,0.496-0.229,0.786-0.229
		c0.01,0,0.02,0,0.03,0.001v1.363c-0.01,0-0.02-0.001-0.03-0.001c-0.039,0.002-0.078,0.003-0.119,0.003
		c-1.4,0-3.947-1.601-3.799-3.291C4.277,7.595,4.23,6.9,3.836,6.426c-0.394-0.473,0.643-1.314,0.6-0.294
		C4.363,7.377,4.686,10.038,5.843,9.485z"/>
</g>
</svg>
